<svg width="375" height="812" viewBox="0 0 375 812" fill="none" xmlns="http://www.w3.org/2000/svg">
<g clip-path="url(#clip0_68_982)">
<rect width="375" height="812" fill="white"/>
<rect x="-2" y="25" width="375" height="787" fill="white"/>
<path d="M50.8047 258H49.4854L44.4746 250.33V258H43.1553V248.047H44.4746L49.499 255.751V248.047H50.8047V258ZM57.5039 257.269C57.0117 257.847 56.2894 258.137 55.3369 258.137C54.5485 258.137 53.9469 257.909 53.5322 257.453C53.1221 256.993 52.9147 256.314 52.9102 255.416V250.604H54.1748V255.382C54.1748 256.503 54.6305 257.063 55.542 257.063C56.5081 257.063 57.1507 256.703 57.4697 255.983V250.604H58.7344V258H57.5312L57.5039 257.269ZM56.4785 247.5H58.0098L56.1777 249.51H55.1592L56.4785 247.5ZM61.8516 250.604L61.8857 251.424C62.4281 250.786 63.1595 250.467 64.0801 250.467C65.1146 250.467 65.8187 250.863 66.1924 251.656C66.4385 251.301 66.7575 251.014 67.1494 250.795C67.5459 250.576 68.013 250.467 68.5508 250.467C70.1732 250.467 70.998 251.326 71.0254 253.044V258H69.7607V253.119C69.7607 252.59 69.64 252.196 69.3984 251.937C69.1569 251.672 68.7513 251.54 68.1816 251.54C67.7122 251.54 67.3226 251.681 67.0127 251.964C66.7028 252.242 66.5228 252.618 66.4727 253.092V258H65.2012V253.153C65.2012 252.078 64.6748 251.54 63.6221 251.54C62.7926 251.54 62.2253 251.893 61.9199 252.6V258H60.6553V250.604H61.8516ZM76.0088 258.137C75.0062 258.137 74.1904 257.809 73.5615 257.152C72.9326 256.492 72.6182 255.61 72.6182 254.507V254.274C72.6182 253.541 72.7572 252.887 73.0352 252.312C73.3177 251.734 73.7096 251.283 74.2109 250.959C74.7168 250.631 75.2637 250.467 75.8516 250.467C76.8132 250.467 77.5605 250.784 78.0938 251.417C78.627 252.05 78.8936 252.957 78.8936 254.138V254.664H73.8828C73.901 255.393 74.113 255.983 74.5186 256.435C74.9287 256.881 75.4482 257.104 76.0771 257.104C76.5238 257.104 76.902 257.013 77.2119 256.831C77.5218 256.649 77.793 256.407 78.0254 256.106L78.7979 256.708C78.1781 257.66 77.2484 258.137 76.0088 258.137ZM75.8516 251.506C75.3411 251.506 74.9128 251.693 74.5664 252.066C74.2201 252.436 74.0059 252.955 73.9238 253.625H77.6289V253.529C77.5924 252.887 77.4193 252.39 77.1094 252.039C76.7995 251.684 76.3802 251.506 75.8516 251.506ZM83.9385 251.738C83.7471 251.706 83.5397 251.69 83.3164 251.69C82.487 251.69 81.9242 252.044 81.6279 252.75V258H80.3633V250.604H81.5938L81.6143 251.458C82.029 250.797 82.6169 250.467 83.3779 250.467C83.624 250.467 83.8109 250.499 83.9385 250.562V251.738ZM84.6357 254.233C84.6357 253.509 84.777 252.857 85.0596 252.278C85.3467 251.7 85.7432 251.253 86.249 250.938C86.7594 250.624 87.3405 250.467 87.9922 250.467C88.9993 250.467 89.8128 250.815 90.4326 251.513C91.057 252.21 91.3691 253.137 91.3691 254.295V254.384C91.3691 255.104 91.2301 255.751 90.9521 256.325C90.6787 256.895 90.2845 257.339 89.7695 257.658C89.2591 257.977 88.6712 258.137 88.0059 258.137C87.0033 258.137 86.1898 257.788 85.5654 257.091C84.9456 256.394 84.6357 255.471 84.6357 254.322V254.233ZM85.9072 254.384C85.9072 255.204 86.0964 255.863 86.4746 256.359C86.8574 256.856 87.3678 257.104 88.0059 257.104C88.6484 257.104 89.1589 256.854 89.5371 256.353C89.9154 255.847 90.1045 255.14 90.1045 254.233C90.1045 253.422 89.9108 252.766 89.5234 252.265C89.1406 251.759 88.6302 251.506 87.9922 251.506C87.3678 251.506 86.8643 251.754 86.4814 252.251C86.0986 252.748 85.9072 253.459 85.9072 254.384ZM96.1201 254.24C96.1201 253.105 96.389 252.194 96.9268 251.506C97.4645 250.813 98.1686 250.467 99.0391 250.467C99.9049 250.467 100.591 250.763 101.097 251.355V247.5H102.361V258H101.199L101.138 257.207C100.632 257.827 99.9277 258.137 99.0254 258.137C98.1686 258.137 97.4691 257.786 96.9268 257.084C96.389 256.382 96.1201 255.466 96.1201 254.336V254.24ZM97.3848 254.384C97.3848 255.222 97.5579 255.879 97.9043 256.353C98.2507 256.826 98.7292 257.063 99.3398 257.063C100.142 257.063 100.728 256.703 101.097 255.983V252.586C100.718 251.889 100.137 251.54 99.3535 251.54C98.7337 251.54 98.2507 251.779 97.9043 252.258C97.5579 252.736 97.3848 253.445 97.3848 254.384ZM107.399 258.137C106.397 258.137 105.581 257.809 104.952 257.152C104.323 256.492 104.009 255.61 104.009 254.507V254.274C104.009 253.541 104.148 252.887 104.426 252.312C104.708 251.734 105.1 251.283 105.602 250.959C106.107 250.631 106.654 250.467 107.242 250.467C108.204 250.467 108.951 250.784 109.484 251.417C110.018 252.05 110.284 252.957 110.284 254.138V254.664H105.273C105.292 255.393 105.504 255.983 105.909 256.435C106.319 256.881 106.839 257.104 107.468 257.104C107.914 257.104 108.293 257.013 108.603 256.831C108.912 256.649 109.184 256.407 109.416 256.106L110.188 256.708C109.569 257.66 108.639 258.137 107.399 258.137ZM107.242 251.506C106.732 251.506 106.303 251.693 105.957 252.066C105.611 252.436 105.396 252.955 105.314 253.625H109.02V253.529C108.983 252.887 108.81 252.39 108.5 252.039C108.19 251.684 107.771 251.506 107.242 251.506ZM121.051 253.399H116.737V256.927H121.748V258H115.425V248.047H121.68V249.127H116.737V252.326H121.051V253.399ZM124.373 250.604L124.407 251.424C124.95 250.786 125.681 250.467 126.602 250.467C127.636 250.467 128.34 250.863 128.714 251.656C128.96 251.301 129.279 251.014 129.671 250.795C130.067 250.576 130.535 250.467 131.072 250.467C132.695 250.467 133.52 251.326 133.547 253.044V258H132.282V253.119C132.282 252.59 132.161 252.196 131.92 251.937C131.678 251.672 131.273 251.54 130.703 251.54C130.234 251.54 129.844 251.681 129.534 251.964C129.224 252.242 129.044 252.618 128.994 253.092V258H127.723V253.153C127.723 252.078 127.196 251.54 126.144 251.54C125.314 251.54 124.747 251.893 124.441 252.6V258H123.177V250.604H124.373ZM141.709 254.384C141.709 255.509 141.451 256.416 140.937 257.104C140.422 257.793 139.724 258.137 138.845 258.137C137.947 258.137 137.241 257.852 136.726 257.282V260.844H135.461V250.604H136.616L136.678 251.424C137.193 250.786 137.908 250.467 138.824 250.467C139.713 250.467 140.415 250.802 140.93 251.472C141.449 252.142 141.709 253.074 141.709 254.268V254.384ZM140.444 254.24C140.444 253.406 140.267 252.748 139.911 252.265C139.556 251.782 139.068 251.54 138.448 251.54C137.683 251.54 137.108 251.88 136.726 252.559V256.093C137.104 256.767 137.683 257.104 138.462 257.104C139.068 257.104 139.549 256.865 139.904 256.387C140.264 255.904 140.444 255.188 140.444 254.24ZM144.696 258H143.432V247.5H144.696V258ZM149.796 258.137C148.793 258.137 147.978 257.809 147.349 257.152C146.72 256.492 146.405 255.61 146.405 254.507V254.274C146.405 253.541 146.544 252.887 146.822 252.312C147.105 251.734 147.497 251.283 147.998 250.959C148.504 250.631 149.051 250.467 149.639 250.467C150.6 250.467 151.348 250.784 151.881 251.417C152.414 252.05 152.681 252.957 152.681 254.138V254.664H147.67C147.688 255.393 147.9 255.983 148.306 256.435C148.716 256.881 149.235 257.104 149.864 257.104C150.311 257.104 150.689 257.013 150.999 256.831C151.309 256.649 151.58 256.407 151.812 256.106L152.585 256.708C151.965 257.66 151.035 258.137 149.796 258.137ZM149.639 251.506C149.128 251.506 148.7 251.693 148.354 252.066C148.007 252.436 147.793 252.955 147.711 253.625H151.416V253.529C151.38 252.887 151.206 252.39 150.896 252.039C150.587 251.684 150.167 251.506 149.639 251.506ZM158.717 258C158.644 257.854 158.585 257.594 158.539 257.221C157.951 257.831 157.249 258.137 156.434 258.137C155.704 258.137 155.105 257.932 154.636 257.521C154.171 257.107 153.938 256.583 153.938 255.949C153.938 255.179 154.23 254.582 154.813 254.158C155.401 253.73 156.226 253.516 157.288 253.516H158.519V252.935C158.519 252.493 158.386 252.142 158.122 251.882C157.858 251.618 157.468 251.485 156.953 251.485C156.502 251.485 156.124 251.599 155.818 251.827C155.513 252.055 155.36 252.331 155.36 252.654H154.089C154.089 252.285 154.219 251.93 154.479 251.588C154.743 251.242 155.098 250.968 155.545 250.768C155.996 250.567 156.491 250.467 157.028 250.467C157.881 250.467 158.548 250.681 159.031 251.109C159.514 251.533 159.765 252.119 159.783 252.866V256.271C159.783 256.95 159.87 257.49 160.043 257.891V258H158.717ZM156.618 257.036C157.015 257.036 157.391 256.934 157.746 256.729C158.102 256.523 158.359 256.257 158.519 255.929V254.411H157.527C155.978 254.411 155.203 254.865 155.203 255.771C155.203 256.168 155.335 256.478 155.6 256.701C155.864 256.924 156.203 257.036 156.618 257.036ZM161.458 254.24C161.458 253.105 161.727 252.194 162.265 251.506C162.802 250.813 163.507 250.467 164.377 250.467C165.243 250.467 165.929 250.763 166.435 251.355V247.5H167.699V258H166.537L166.476 257.207C165.97 257.827 165.266 258.137 164.363 258.137C163.507 258.137 162.807 257.786 162.265 257.084C161.727 256.382 161.458 255.466 161.458 254.336V254.24ZM162.723 254.384C162.723 255.222 162.896 255.879 163.242 256.353C163.589 256.826 164.067 257.063 164.678 257.063C165.48 257.063 166.065 256.703 166.435 255.983V252.586C166.056 251.889 165.475 251.54 164.691 251.54C164.072 251.54 163.589 251.779 163.242 252.258C162.896 252.736 162.723 253.445 162.723 254.384ZM169.333 254.233C169.333 253.509 169.474 252.857 169.757 252.278C170.044 251.7 170.44 251.253 170.946 250.938C171.457 250.624 172.038 250.467 172.689 250.467C173.697 250.467 174.51 250.815 175.13 251.513C175.754 252.21 176.066 253.137 176.066 254.295V254.384C176.066 255.104 175.927 255.751 175.649 256.325C175.376 256.895 174.982 257.339 174.467 257.658C173.956 257.977 173.368 258.137 172.703 258.137C171.701 258.137 170.887 257.788 170.263 257.091C169.643 256.394 169.333 255.471 169.333 254.322V254.233ZM170.604 254.384C170.604 255.204 170.794 255.863 171.172 256.359C171.555 256.856 172.065 257.104 172.703 257.104C173.346 257.104 173.856 256.854 174.234 256.353C174.613 255.847 174.802 255.14 174.802 254.233C174.802 253.422 174.608 252.766 174.221 252.265C173.838 251.759 173.327 251.506 172.689 251.506C172.065 251.506 171.562 251.754 171.179 252.251C170.796 252.748 170.604 253.459 170.604 254.384Z" fill="#7F8182"/>
<path d="M128.512 206V188.938H134.488C136.559 188.938 138.129 189.336 139.199 190.133C140.27 190.922 140.805 192.082 140.805 193.613C140.805 194.449 140.59 195.188 140.16 195.828C139.73 196.461 139.133 196.926 138.367 197.223C139.242 197.441 139.93 197.883 140.43 198.547C140.938 199.211 141.191 200.023 141.191 200.984C141.191 202.625 140.668 203.867 139.621 204.711C138.574 205.555 137.082 205.984 135.145 206H128.512ZM132.027 198.57V203.176H135.039C135.867 203.176 136.512 202.98 136.973 202.59C137.441 202.191 137.676 201.645 137.676 200.949C137.676 199.387 136.867 198.594 135.25 198.57H132.027ZM132.027 196.086H134.629C136.402 196.055 137.289 195.348 137.289 193.965C137.289 193.191 137.062 192.637 136.609 192.301C136.164 191.957 135.457 191.785 134.488 191.785H132.027V196.086ZM147.191 206H143.793V193.32H147.191V206ZM143.594 190.039C143.594 189.531 143.762 189.113 144.098 188.785C144.441 188.457 144.906 188.293 145.492 188.293C146.07 188.293 146.531 188.457 146.875 188.785C147.219 189.113 147.391 189.531 147.391 190.039C147.391 190.555 147.215 190.977 146.863 191.305C146.52 191.633 146.062 191.797 145.492 191.797C144.922 191.797 144.461 191.633 144.109 191.305C143.766 190.977 143.594 190.555 143.594 190.039ZM155.828 206.234C153.969 206.234 152.453 205.664 151.281 204.523C150.117 203.383 149.535 201.863 149.535 199.965V199.637C149.535 198.363 149.781 197.227 150.273 196.227C150.766 195.219 151.461 194.445 152.359 193.906C153.266 193.359 154.297 193.086 155.453 193.086C157.188 193.086 158.551 193.633 159.543 194.727C160.543 195.82 161.043 197.371 161.043 199.379V200.762H152.969C153.078 201.59 153.406 202.254 153.953 202.754C154.508 203.254 155.207 203.504 156.051 203.504C157.355 203.504 158.375 203.031 159.109 202.086L160.773 203.949C160.266 204.668 159.578 205.23 158.711 205.637C157.844 206.035 156.883 206.234 155.828 206.234ZM155.441 195.828C154.77 195.828 154.223 196.055 153.801 196.508C153.387 196.961 153.121 197.609 153.004 198.453H157.715V198.184C157.699 197.434 157.496 196.855 157.105 196.449C156.715 196.035 156.16 195.828 155.441 195.828ZM166.094 193.32L166.199 194.785C167.105 193.652 168.32 193.086 169.844 193.086C171.188 193.086 172.188 193.48 172.844 194.27C173.5 195.059 173.836 196.238 173.852 197.809V206H170.465V197.891C170.465 197.172 170.309 196.652 169.996 196.332C169.684 196.004 169.164 195.84 168.438 195.84C167.484 195.84 166.77 196.246 166.293 197.059V206H162.906V193.32H166.094ZM181.176 201.863L183.531 193.32H187.07L182.793 206H179.559L175.281 193.32H178.82L181.176 201.863ZM194.242 206.234C192.383 206.234 190.867 205.664 189.695 204.523C188.531 203.383 187.949 201.863 187.949 199.965V199.637C187.949 198.363 188.195 197.227 188.688 196.227C189.18 195.219 189.875 194.445 190.773 193.906C191.68 193.359 192.711 193.086 193.867 193.086C195.602 193.086 196.965 193.633 197.957 194.727C198.957 195.82 199.457 197.371 199.457 199.379V200.762H191.383C191.492 201.59 191.82 202.254 192.367 202.754C192.922 203.254 193.621 203.504 194.465 203.504C195.77 203.504 196.789 203.031 197.523 202.086L199.188 203.949C198.68 204.668 197.992 205.23 197.125 205.637C196.258 206.035 195.297 206.234 194.242 206.234ZM193.855 195.828C193.184 195.828 192.637 196.055 192.215 196.508C191.801 196.961 191.535 197.609 191.418 198.453H196.129V198.184C196.113 197.434 195.91 196.855 195.52 196.449C195.129 196.035 194.574 195.828 193.855 195.828ZM204.508 193.32L204.613 194.785C205.52 193.652 206.734 193.086 208.258 193.086C209.602 193.086 210.602 193.48 211.258 194.27C211.914 195.059 212.25 196.238 212.266 197.809V206H208.879V197.891C208.879 197.172 208.723 196.652 208.41 196.332C208.098 196.004 207.578 195.84 206.852 195.84C205.898 195.84 205.184 196.246 204.707 197.059V206H201.32V193.32H204.508ZM218.418 206H215.02V193.32H218.418V206ZM214.82 190.039C214.82 189.531 214.988 189.113 215.324 188.785C215.668 188.457 216.133 188.293 216.719 188.293C217.297 188.293 217.758 188.457 218.102 188.785C218.445 189.113 218.617 189.531 218.617 190.039C218.617 190.555 218.441 190.977 218.09 191.305C217.746 191.633 217.289 191.797 216.719 191.797C216.148 191.797 215.688 191.633 215.336 191.305C214.992 190.977 214.82 190.555 214.82 190.039ZM220.691 199.566C220.691 197.59 221.133 196.016 222.016 194.844C222.906 193.672 224.121 193.086 225.66 193.086C226.895 193.086 227.914 193.547 228.719 194.469V188H232.117V206H229.059L228.895 204.652C228.051 205.707 226.965 206.234 225.637 206.234C224.145 206.234 222.945 205.648 222.039 204.477C221.141 203.297 220.691 201.66 220.691 199.566ZM224.078 199.812C224.078 201 224.285 201.91 224.699 202.543C225.113 203.176 225.715 203.492 226.504 203.492C227.551 203.492 228.289 203.051 228.719 202.168V197.164C228.297 196.281 227.566 195.84 226.527 195.84C224.895 195.84 224.078 197.164 224.078 199.812ZM234.215 199.543C234.215 198.285 234.457 197.164 234.941 196.18C235.426 195.195 236.121 194.434 237.027 193.895C237.941 193.355 239 193.086 240.203 193.086C241.914 193.086 243.309 193.609 244.387 194.656C245.473 195.703 246.078 197.125 246.203 198.922L246.227 199.789C246.227 201.734 245.684 203.297 244.598 204.477C243.512 205.648 242.055 206.234 240.227 206.234C238.398 206.234 236.938 205.648 235.844 204.477C234.758 203.305 234.215 201.711 234.215 199.695V199.543ZM237.602 199.789C237.602 200.992 237.828 201.914 238.281 202.555C238.734 203.188 239.383 203.504 240.227 203.504C241.047 203.504 241.688 203.191 242.148 202.566C242.609 201.934 242.84 200.926 242.84 199.543C242.84 198.363 242.609 197.449 242.148 196.801C241.688 196.152 241.039 195.828 240.203 195.828C239.375 195.828 238.734 196.152 238.281 196.801C237.828 197.441 237.602 198.438 237.602 199.789Z" fill="black"/>
<line x1="98" y1="336.5" x2="296" y2="336.5" stroke="#F5F5F5"/>
<path d="M50.4766 348.842C50.3535 349.895 49.9639 350.708 49.3076 351.282C48.6559 351.852 47.7878 352.137 46.7031 352.137C45.5273 352.137 44.584 351.715 43.873 350.872C43.1667 350.029 42.8135 348.901 42.8135 347.488V346.531C42.8135 345.606 42.9775 344.793 43.3057 344.091C43.6383 343.389 44.1077 342.851 44.7139 342.478C45.32 342.099 46.0218 341.91 46.8193 341.91C47.8766 341.91 48.7243 342.206 49.3623 342.799C50.0003 343.387 50.3717 344.202 50.4766 345.246H49.1572C49.0433 344.453 48.7949 343.879 48.4121 343.523C48.0339 343.168 47.5029 342.99 46.8193 342.99C45.9808 342.99 45.3223 343.3 44.8438 343.92C44.3698 344.54 44.1328 345.422 44.1328 346.565V347.529C44.1328 348.609 44.3584 349.468 44.8096 350.106C45.2607 350.744 45.8919 351.063 46.7031 351.063C47.4323 351.063 47.9906 350.899 48.3779 350.571C48.7699 350.239 49.0296 349.662 49.1572 348.842H50.4766ZM51.7412 348.233C51.7412 347.509 51.8825 346.857 52.165 346.278C52.4521 345.7 52.8486 345.253 53.3545 344.938C53.8649 344.624 54.446 344.467 55.0977 344.467C56.1048 344.467 56.9183 344.815 57.5381 345.513C58.1624 346.21 58.4746 347.137 58.4746 348.295V348.384C58.4746 349.104 58.3356 349.751 58.0576 350.325C57.7842 350.895 57.39 351.339 56.875 351.658C56.3646 351.977 55.7767 352.137 55.1113 352.137C54.1087 352.137 53.2952 351.788 52.6709 351.091C52.0511 350.394 51.7412 349.471 51.7412 348.322V348.233ZM53.0127 348.384C53.0127 349.204 53.2018 349.863 53.5801 350.359C53.9629 350.856 54.4733 351.104 55.1113 351.104C55.7539 351.104 56.2643 350.854 56.6426 350.353C57.0208 349.847 57.21 349.14 57.21 348.233C57.21 347.422 57.0163 346.766 56.6289 346.265C56.2461 345.759 55.7357 345.506 55.0977 345.506C54.4733 345.506 53.9697 345.754 53.5869 346.251C53.2041 346.748 53.0127 347.459 53.0127 348.384ZM61.2568 344.604L61.2979 345.533C61.863 344.822 62.6012 344.467 63.5127 344.467C65.0758 344.467 65.8643 345.349 65.8779 347.112V352H64.6133V347.105C64.6087 346.572 64.4857 346.178 64.2441 345.923C64.0072 345.668 63.6357 345.54 63.1299 345.54C62.7197 345.54 62.3597 345.649 62.0498 345.868C61.7399 346.087 61.4984 346.374 61.3252 346.729V352H60.0605V344.604H61.2568ZM69.501 342.812V344.604H70.8818V345.581H69.501V350.168C69.501 350.464 69.5625 350.688 69.6855 350.838C69.8086 350.984 70.0182 351.057 70.3145 351.057C70.4603 351.057 70.6608 351.029 70.916 350.975V352C70.5833 352.091 70.2598 352.137 69.9453 352.137C69.3802 352.137 68.9541 351.966 68.667 351.624C68.3799 351.282 68.2363 350.797 68.2363 350.168V345.581H66.8896V344.604H68.2363V342.812H69.501ZM75.9404 345.738C75.749 345.706 75.5417 345.69 75.3184 345.69C74.4889 345.69 73.9261 346.044 73.6299 346.75V352H72.3652V344.604H73.5957L73.6162 345.458C74.0309 344.797 74.6188 344.467 75.3799 344.467C75.626 344.467 75.8128 344.499 75.9404 344.562V345.738ZM81.4023 352C81.3294 351.854 81.2702 351.594 81.2246 351.221C80.6367 351.831 79.9349 352.137 79.1191 352.137C78.39 352.137 77.7907 351.932 77.3213 351.521C76.8564 351.107 76.624 350.583 76.624 349.949C76.624 349.179 76.9157 348.582 77.499 348.158C78.0869 347.73 78.9118 347.516 79.9736 347.516H81.2041V346.935C81.2041 346.493 81.0719 346.142 80.8076 345.882C80.5433 345.618 80.1536 345.485 79.6387 345.485C79.1875 345.485 78.8092 345.599 78.5039 345.827C78.1986 346.055 78.0459 346.331 78.0459 346.654H76.7744C76.7744 346.285 76.9043 345.93 77.1641 345.588C77.4284 345.242 77.7839 344.968 78.2305 344.768C78.6816 344.567 79.1761 344.467 79.7139 344.467C80.5661 344.467 81.2337 344.681 81.7168 345.109C82.1999 345.533 82.4505 346.119 82.4688 346.866V350.271C82.4688 350.95 82.5553 351.49 82.7285 351.891V352H81.4023ZM79.3037 351.036C79.7002 351.036 80.0762 350.934 80.4316 350.729C80.7871 350.523 81.0446 350.257 81.2041 349.929V348.411H80.2129C78.6634 348.411 77.8887 348.865 77.8887 349.771C77.8887 350.168 78.0208 350.478 78.2852 350.701C78.5495 350.924 78.889 351.036 79.3037 351.036ZM88.7578 350.038C88.7578 349.696 88.6279 349.432 88.3682 349.245C88.113 349.054 87.6641 348.89 87.0215 348.753C86.3835 348.616 85.8753 348.452 85.4971 348.261C85.1234 348.069 84.8454 347.841 84.6631 347.577C84.4854 347.313 84.3965 346.998 84.3965 346.634C84.3965 346.028 84.6517 345.515 85.1621 345.096C85.6771 344.676 86.3333 344.467 87.1309 344.467C87.9694 344.467 88.6484 344.683 89.168 345.116C89.6921 345.549 89.9541 346.103 89.9541 346.777H88.6826C88.6826 346.431 88.5345 346.132 88.2383 345.882C87.9466 345.631 87.5775 345.506 87.1309 345.506C86.6706 345.506 86.3105 345.606 86.0508 345.807C85.791 346.007 85.6611 346.269 85.6611 346.593C85.6611 346.898 85.7819 347.128 86.0234 347.283C86.265 347.438 86.7002 347.586 87.3291 347.728C87.9626 347.869 88.4753 348.037 88.8672 348.233C89.2591 348.429 89.5485 348.666 89.7354 348.944C89.9268 349.218 90.0225 349.553 90.0225 349.949C90.0225 350.61 89.7581 351.141 89.2295 351.542C88.7008 351.938 88.015 352.137 87.1719 352.137C86.5794 352.137 86.0553 352.032 85.5996 351.822C85.1439 351.613 84.7861 351.321 84.5264 350.947C84.2712 350.569 84.1436 350.161 84.1436 349.724H85.4082C85.431 350.147 85.5996 350.485 85.9141 350.735C86.2331 350.981 86.6523 351.104 87.1719 351.104C87.6504 351.104 88.0332 351.009 88.3203 350.817C88.612 350.621 88.7578 350.362 88.7578 350.038ZM94.7393 352.137C93.7367 352.137 92.9209 351.809 92.292 351.152C91.6631 350.492 91.3486 349.61 91.3486 348.507V348.274C91.3486 347.541 91.4876 346.887 91.7656 346.312C92.0482 345.734 92.4401 345.283 92.9414 344.959C93.4473 344.631 93.9941 344.467 94.582 344.467C95.5436 344.467 96.291 344.784 96.8242 345.417C97.3574 346.05 97.624 346.957 97.624 348.138V348.664H92.6133C92.6315 349.393 92.8434 349.983 93.249 350.435C93.6592 350.881 94.1787 351.104 94.8076 351.104C95.2542 351.104 95.6325 351.013 95.9424 350.831C96.2523 350.649 96.5234 350.407 96.7559 350.106L97.5283 350.708C96.9085 351.66 95.9788 352.137 94.7393 352.137ZM94.582 345.506C94.0716 345.506 93.6432 345.693 93.2969 346.066C92.9505 346.436 92.7363 346.955 92.6543 347.625H96.3594V347.529C96.3229 346.887 96.1497 346.39 95.8398 346.039C95.5299 345.684 95.1107 345.506 94.582 345.506ZM100.29 344.604L100.331 345.533C100.896 344.822 101.634 344.467 102.546 344.467C104.109 344.467 104.897 345.349 104.911 347.112V352H103.646V347.105C103.642 346.572 103.519 346.178 103.277 345.923C103.04 345.668 102.669 345.54 102.163 345.54C101.753 345.54 101.393 345.649 101.083 345.868C100.773 346.087 100.532 346.374 100.358 346.729V352H99.0938V344.604H100.29ZM104.474 341.719C104.474 342.211 104.332 342.61 104.05 342.915C103.772 343.22 103.423 343.373 103.004 343.373C102.817 343.373 102.655 343.35 102.519 343.305C102.382 343.259 102.202 343.166 101.979 343.024C101.76 342.883 101.6 342.799 101.5 342.771C101.404 342.74 101.293 342.724 101.165 342.724C100.978 342.724 100.819 342.797 100.687 342.942C100.554 343.084 100.488 343.266 100.488 343.489L99.6406 343.441C99.6406 342.954 99.7773 342.55 100.051 342.231C100.329 341.912 100.68 341.753 101.104 341.753C101.263 341.753 101.407 341.776 101.534 341.821C101.662 341.867 101.835 341.956 102.054 342.088C102.272 342.22 102.439 342.307 102.553 342.348C102.671 342.389 102.801 342.409 102.942 342.409C103.138 342.409 103.3 342.332 103.428 342.177C103.56 342.022 103.626 341.842 103.626 341.637L104.474 341.719ZM111.385 352C111.312 351.854 111.253 351.594 111.207 351.221C110.619 351.831 109.917 352.137 109.102 352.137C108.372 352.137 107.773 351.932 107.304 351.521C106.839 351.107 106.606 350.583 106.606 349.949C106.606 349.179 106.898 348.582 107.481 348.158C108.069 347.73 108.894 347.516 109.956 347.516H111.187V346.935C111.187 346.493 111.054 346.142 110.79 345.882C110.526 345.618 110.136 345.485 109.621 345.485C109.17 345.485 108.792 345.599 108.486 345.827C108.181 346.055 108.028 346.331 108.028 346.654H106.757C106.757 346.285 106.887 345.93 107.146 345.588C107.411 345.242 107.766 344.968 108.213 344.768C108.664 344.567 109.159 344.467 109.696 344.467C110.549 344.467 111.216 344.681 111.699 345.109C112.182 345.533 112.433 346.119 112.451 346.866V350.271C112.451 350.95 112.538 351.49 112.711 351.891V352H111.385ZM109.286 351.036C109.683 351.036 110.059 350.934 110.414 350.729C110.77 350.523 111.027 350.257 111.187 349.929V348.411H110.195C108.646 348.411 107.871 348.865 107.871 349.771C107.871 350.168 108.003 350.478 108.268 350.701C108.532 350.924 108.871 351.036 109.286 351.036Z" fill="#7F8182"/>
<path opacity="0.44" fill-rule="evenodd" clip-rule="evenodd" d="M367 8L367.46 8.30662C368.11 8.73981 368.5 9.46907 368.5 10.25C368.5 11.0309 368.11 11.7602 367.46 12.1934L367 12.5V8ZM344 4.5H364C365.105 4.5 366 5.39543 366 6.5V14C366 15.1046 365.105 16 364 16H344C342.895 16 342 15.1046 342 14V6.5C342 5.39543 342.895 4.5 344 4.5ZM344 5.5C343.448 5.5 343 5.94772 343 6.5V14C343 14.5523 343.448 15 344 15H364C364.552 15 365 14.5523 365 14V6.5C365 5.94772 364.552 5.5 364 5.5H344Z" fill="#030303"/>
<path fill-rule="evenodd" clip-rule="evenodd" d="M345 6.5H360V14H345C344.448 14 344 13.5523 344 13V7.5C344 6.94772 344.448 6.5 345 6.5Z" fill="#030303"/>
<path d="M173.26 14H174.771V5.54492H173.266L171.057 7.0918V8.54492L173.16 7.06836H173.26V14Z" fill="#030303"/>
<path d="M180.127 14.2051C182.277 14.2051 183.555 12.5234 183.555 9.67578C183.555 8.60352 183.35 7.70117 182.957 7.00391C182.389 5.91992 181.41 5.33398 180.174 5.33398C178.334 5.33398 177.033 6.57031 177.033 8.30469C177.033 9.93359 178.205 11.1172 179.816 11.1172C180.807 11.1172 181.609 10.6543 182.008 9.85156H182.025C182.025 9.85156 182.049 9.85156 182.055 9.85156C182.066 9.85156 182.107 9.85156 182.107 9.85156C182.107 11.7852 181.375 12.9395 180.139 12.9395C179.412 12.9395 178.85 12.541 178.656 11.9023H177.15C177.402 13.291 178.58 14.2051 180.127 14.2051ZM180.18 9.91602C179.207 9.91602 178.516 9.22461 178.516 8.25781C178.516 7.31445 179.242 6.59375 180.186 6.59375C181.129 6.59375 181.855 7.32617 181.855 8.28125C181.855 9.22461 181.146 9.91602 180.18 9.91602Z" fill="#030303"/>
<path d="M186.209 13.1035C186.766 13.1035 187.146 12.7051 187.146 12.1777C187.146 11.6445 186.766 11.252 186.209 11.252C185.658 11.252 185.271 11.6445 185.271 12.1777C185.271 12.7051 185.658 13.1035 186.209 13.1035ZM186.209 8.70898C186.766 8.70898 187.146 8.31641 187.146 7.78906C187.146 7.25586 186.766 6.86328 186.209 6.86328C185.658 6.86328 185.271 7.25586 185.271 7.78906C185.271 8.31641 185.658 8.70898 186.209 8.70898Z" fill="#030303"/>
<path d="M192.115 14.2109C194.137 14.2109 195.338 12.5703 195.338 9.77539C195.338 6.96875 194.119 5.33398 192.115 5.33398C190.105 5.33398 188.887 6.96875 188.887 9.76367C188.887 12.5703 190.088 14.2109 192.115 14.2109ZM192.115 12.957C191.043 12.957 190.416 11.8438 190.416 9.76367C190.416 7.70117 191.055 6.59375 192.115 6.59375C193.176 6.59375 193.809 7.69531 193.809 9.76367C193.809 11.8438 193.188 12.957 192.115 12.957Z" fill="#030303"/>
<path d="M196.908 8.01758V8.04102H198.326V8.01758C198.326 7.15625 198.924 6.57617 199.809 6.57617C200.641 6.57617 201.25 7.11523 201.25 7.85938C201.25 8.45703 200.963 8.89648 199.809 10.0684L196.99 12.9512V14H202.861V12.7168H199.064V12.6172L200.834 10.8418C202.27 9.42383 202.732 8.67383 202.732 7.76562C202.732 6.35352 201.525 5.33398 199.855 5.33398C198.121 5.33398 196.908 6.43555 196.908 8.01758Z" fill="#030303"/>
<path fill-rule="evenodd" clip-rule="evenodd" d="M20.5 5C19.9477 5 19.5 5.44772 19.5 6V14C19.5 14.5523 19.9477 15 20.5 15H21.5C22.0523 15 22.5 14.5523 22.5 14V6C22.5 5.44772 22.0523 5 21.5 5H20.5ZM15 8C15 7.44772 15.4477 7 16 7H17C17.5523 7 18 7.44772 18 8V14C18 14.5523 17.5523 15 17 15H16C15.4477 15 15 14.5523 15 14V8ZM11.5 9C10.9477 9 10.5 9.44772 10.5 10V14C10.5 14.5523 10.9477 15 11.5 15H12.5C13.0523 15 13.5 14.5523 13.5 14V10C13.5 9.44772 13.0523 9 12.5 9H11.5ZM7 15C6.44772 15 6 14.5523 6 14V11.5C6 10.9477 6.44772 10.5 7 10.5H8C8.55228 10.5 9 10.9477 9 11.5V14C9 14.5523 8.55228 15 8 15H7Z" fill="#030303"/>
<path d="M27.1621 11.7441C27.2559 13.2441 28.5156 14.2051 30.3906 14.2051C32.3945 14.2051 33.6484 13.1973 33.6484 11.5977C33.6484 10.332 32.9336 9.63477 31.1992 9.21875L30.2676 8.99023C29.166 8.7207 28.7207 8.36914 28.7207 7.75391C28.7207 6.96289 29.4121 6.45312 30.4492 6.45312C31.4336 6.45312 32.1133 6.94531 32.2363 7.74805H33.5137C33.4375 6.33594 32.1836 5.33984 30.4668 5.33984C28.6211 5.33984 27.3906 6.33594 27.3906 7.82422C27.3906 9.05469 28.0879 9.78125 29.6172 10.1504L30.707 10.4141C31.8262 10.6836 32.3184 11.0938 32.3184 11.7559C32.3184 12.5293 31.5449 13.0859 30.4902 13.0859C29.3594 13.0859 28.5742 12.5645 28.4629 11.7441H27.1621ZM39.2941 12.2949C39.0597 12.8105 38.5382 13.0918 37.7765 13.0918C36.7687 13.0918 36.1183 12.3652 36.0773 11.2109V11.1523H40.5831V10.7188C40.5831 8.72656 39.5109 7.51367 37.7355 7.51367C35.9366 7.51367 34.7941 8.80859 34.7941 10.8301C34.7941 12.8633 35.9132 14.123 37.7413 14.123C39.2003 14.123 40.2316 13.4199 40.507 12.2949H39.2941ZM37.7296 8.53906C38.6613 8.53906 39.2706 9.21289 39.2999 10.2441H36.0773C36.1476 9.21875 36.798 8.53906 37.7296 8.53906ZM41.9748 14H43.2346V10.1973C43.2346 9.30078 43.9084 8.68555 44.8635 8.68555C45.0862 8.68555 45.4612 8.72656 45.5666 8.75586V7.57227C45.4319 7.54297 45.1916 7.52539 45.0041 7.52539C44.1721 7.52539 43.4631 7.97656 43.2815 8.60352H43.1877V7.63672H41.9748V14ZM52.097 7.63672H50.7611L49.1791 12.7109H49.0795L47.4916 7.63672H46.1439L48.4466 14H49.8002L52.097 7.63672ZM53.9048 6.5C54.3442 6.5 54.7016 6.14258 54.7016 5.70898C54.7016 5.26953 54.3442 4.91211 53.9048 4.91211C53.4653 4.91211 53.1079 5.26953 53.1079 5.70898C53.1079 6.14258 53.4653 6.5 53.9048 6.5ZM53.2778 14H54.5317V7.63672H53.2778V14ZM61.6656 9.68164C61.5016 8.44531 60.5348 7.51367 58.9352 7.51367C57.0777 7.51367 55.9469 8.77344 55.9469 10.7949C55.9469 12.8574 57.0836 14.123 58.941 14.123C60.5172 14.123 61.5016 13.2383 61.6656 11.9844H60.441C60.277 12.6758 59.732 13.0508 58.9352 13.0508C57.8863 13.0508 57.2359 12.2012 57.2359 10.7949C57.2359 9.41797 57.8805 8.58594 58.9352 8.58594C59.7789 8.58594 60.2945 9.06055 60.441 9.68164H61.6656ZM67.1706 12.2949C66.9362 12.8105 66.4148 13.0918 65.653 13.0918C64.6452 13.0918 63.9948 12.3652 63.9538 11.2109V11.1523H68.4597V10.7188C68.4597 8.72656 67.3874 7.51367 65.612 7.51367C63.8132 7.51367 62.6706 8.80859 62.6706 10.8301C62.6706 12.8633 63.7898 14.123 65.6179 14.123C67.0769 14.123 68.1081 13.4199 68.3835 12.2949H67.1706ZM65.6062 8.53906C66.5378 8.53906 67.1472 9.21289 67.1765 10.2441H63.9538C64.0241 9.21875 64.6745 8.53906 65.6062 8.53906Z" fill="#030303"/>
<path d="M81.8081 6.49216C84.2189 6.49226 86.5375 7.42402 88.2846 9.09485C88.4162 9.22384 88.6265 9.22222 88.7561 9.0912L90.0137 7.81448C90.0793 7.74803 90.1159 7.65802 90.1154 7.56436C90.1148 7.47071 90.0772 7.38114 90.0108 7.31546C85.4251 2.89485 78.1905 2.89485 73.6047 7.31546C73.5383 7.38109 73.5006 7.47063 73.5 7.56429C73.4994 7.65794 73.5359 7.74798 73.6015 7.81448L74.8595 9.0912C74.989 9.22241 75.1994 9.22404 75.3309 9.09485C77.0783 7.42391 79.3972 6.49215 81.8081 6.49216ZM81.8081 10.6459C83.1327 10.6458 84.41 11.141 85.3918 12.0353C85.5246 12.1622 85.7338 12.1595 85.8632 12.0291L87.1195 10.7524C87.1856 10.6854 87.2223 10.5946 87.2214 10.5002C87.2204 10.4058 87.1819 10.3157 87.1144 10.2501C84.1245 7.45256 79.4943 7.45256 76.5045 10.2501C76.4369 10.3157 76.3984 10.4058 76.3975 10.5003C76.3966 10.5947 76.4334 10.6855 76.4997 10.7524L77.7556 12.0291C77.885 12.1595 78.0942 12.1622 78.227 12.0353C79.2082 11.1416 80.4845 10.6464 81.8081 10.6459ZM84.2223 13.6929C84.2895 13.6266 84.3265 13.5353 84.3245 13.4406C84.3226 13.3459 84.2819 13.2563 84.2121 13.1928C82.8244 12.0121 80.7919 12.0121 79.4042 13.1928C79.3343 13.2562 79.2936 13.3459 79.2916 13.4405C79.2896 13.5352 79.3265 13.6265 79.3937 13.6929L81.567 15.8987C81.6307 15.9635 81.7175 16 81.8081 16C81.8988 16 81.9856 15.9635 82.0493 15.8987L84.2223 13.6929Z" fill="#030303"/>
<rect x="42" y="264" width="291" height="52" rx="10" fill="#F5F5F5"/>
<path d="M92.0879 289.563C90.9622 289.24 90.1419 288.843 89.627 288.374C89.1165 287.9 88.8613 287.317 88.8613 286.624C88.8613 285.84 89.1735 285.193 89.7979 284.683C90.4268 284.168 91.2425 283.91 92.2451 283.91C92.9287 283.91 93.5371 284.042 94.0703 284.307C94.6081 284.571 95.0228 284.936 95.3145 285.4C95.6107 285.865 95.7588 286.373 95.7588 286.925H94.4395C94.4395 286.323 94.248 285.852 93.8652 285.51C93.4824 285.163 92.9424 284.99 92.2451 284.99C91.598 284.99 91.0921 285.134 90.7275 285.421C90.3675 285.703 90.1875 286.098 90.1875 286.604C90.1875 287.009 90.3584 287.353 90.7002 287.636C91.0465 287.914 91.6322 288.169 92.457 288.401C93.2865 288.634 93.9336 288.891 94.3984 289.174C94.8678 289.452 95.2142 289.778 95.4375 290.151C95.6654 290.525 95.7793 290.965 95.7793 291.471C95.7793 292.277 95.4648 292.924 94.8359 293.412C94.207 293.895 93.3662 294.137 92.3135 294.137C91.6299 294.137 90.9919 294.007 90.3994 293.747C89.807 293.483 89.349 293.123 89.0254 292.667C88.7064 292.211 88.5469 291.694 88.5469 291.115H89.8662C89.8662 291.717 90.0872 292.193 90.5293 292.544C90.9759 292.89 91.5706 293.063 92.3135 293.063C93.0062 293.063 93.5371 292.922 93.9062 292.64C94.2754 292.357 94.46 291.972 94.46 291.484C94.46 290.997 94.2891 290.621 93.9473 290.356C93.6055 290.088 92.9857 289.823 92.0879 289.563ZM100.339 294.137C99.3363 294.137 98.5205 293.809 97.8916 293.152C97.2627 292.492 96.9482 291.61 96.9482 290.507V290.274C96.9482 289.541 97.0872 288.887 97.3652 288.312C97.6478 287.734 98.0397 287.283 98.541 286.959C99.0469 286.631 99.5938 286.467 100.182 286.467C101.143 286.467 101.891 286.784 102.424 287.417C102.957 288.05 103.224 288.957 103.224 290.138V290.664H98.2129C98.2311 291.393 98.443 291.983 98.8486 292.435C99.2588 292.881 99.7783 293.104 100.407 293.104C100.854 293.104 101.232 293.013 101.542 292.831C101.852 292.649 102.123 292.407 102.355 292.106L103.128 292.708C102.508 293.66 101.578 294.137 100.339 294.137ZM100.182 287.506C99.6712 287.506 99.2428 287.693 98.8965 288.066C98.5501 288.436 98.3359 288.955 98.2539 289.625H101.959V289.529C101.923 288.887 101.749 288.39 101.439 288.039C101.13 287.684 100.71 287.506 100.182 287.506ZM108.269 287.738C108.077 287.706 107.87 287.69 107.646 287.69C106.817 287.69 106.254 288.044 105.958 288.75V294H104.693V286.604H105.924L105.944 287.458C106.359 286.797 106.947 286.467 107.708 286.467C107.954 286.467 108.141 286.499 108.269 286.562V287.738ZM109 290.24C109 289.087 109.267 288.171 109.8 287.492C110.333 286.809 111.039 286.467 111.919 286.467C112.821 286.467 113.525 286.786 114.031 287.424L114.093 286.604H115.248V293.822C115.248 294.779 114.963 295.534 114.394 296.085C113.828 296.636 113.067 296.912 112.11 296.912C111.577 296.912 111.055 296.798 110.545 296.57C110.035 296.342 109.645 296.03 109.376 295.634L110.032 294.875C110.575 295.545 111.238 295.88 112.021 295.88C112.637 295.88 113.115 295.707 113.457 295.36C113.803 295.014 113.977 294.526 113.977 293.897V293.262C113.471 293.845 112.78 294.137 111.905 294.137C111.039 294.137 110.338 293.788 109.8 293.091C109.267 292.394 109 291.443 109 290.24ZM110.271 290.384C110.271 291.218 110.442 291.874 110.784 292.353C111.126 292.826 111.604 293.063 112.22 293.063C113.017 293.063 113.603 292.701 113.977 291.977V288.6C113.589 287.893 113.008 287.54 112.233 287.54C111.618 287.54 111.137 287.779 110.791 288.258C110.445 288.736 110.271 289.445 110.271 290.384ZM118.536 294H117.271V286.604H118.536V294ZM117.169 284.642C117.169 284.437 117.23 284.263 117.354 284.122C117.481 283.981 117.668 283.91 117.914 283.91C118.16 283.91 118.347 283.981 118.475 284.122C118.602 284.263 118.666 284.437 118.666 284.642C118.666 284.847 118.602 285.018 118.475 285.154C118.347 285.291 118.16 285.359 117.914 285.359C117.668 285.359 117.481 285.291 117.354 285.154C117.23 285.018 117.169 284.847 117.169 284.642ZM120.231 290.233C120.231 289.509 120.373 288.857 120.655 288.278C120.942 287.7 121.339 287.253 121.845 286.938C122.355 286.624 122.936 286.467 123.588 286.467C124.595 286.467 125.409 286.815 126.028 287.513C126.653 288.21 126.965 289.137 126.965 290.295V290.384C126.965 291.104 126.826 291.751 126.548 292.325C126.274 292.895 125.88 293.339 125.365 293.658C124.855 293.977 124.267 294.137 123.602 294.137C122.599 294.137 121.785 293.788 121.161 293.091C120.541 292.394 120.231 291.471 120.231 290.322V290.233ZM121.503 290.384C121.503 291.204 121.692 291.863 122.07 292.359C122.453 292.856 122.964 293.104 123.602 293.104C124.244 293.104 124.755 292.854 125.133 292.353C125.511 291.847 125.7 291.14 125.7 290.233C125.7 289.422 125.507 288.766 125.119 288.265C124.736 287.759 124.226 287.506 123.588 287.506C122.964 287.506 122.46 287.754 122.077 288.251C121.694 288.748 121.503 289.459 121.503 290.384ZM139.57 292.694C139.233 293.177 138.761 293.54 138.155 293.781C137.554 294.018 136.852 294.137 136.05 294.137C135.239 294.137 134.519 293.948 133.89 293.569C133.261 293.187 132.773 292.644 132.427 291.942C132.085 291.241 131.91 290.427 131.9 289.502V288.634C131.9 287.134 132.249 285.972 132.946 285.147C133.648 284.323 134.632 283.91 135.899 283.91C136.938 283.91 137.775 284.177 138.408 284.71C139.042 285.239 139.429 285.991 139.57 286.966H138.258C138.012 285.649 137.228 284.99 135.906 284.99C135.027 284.99 134.359 285.3 133.903 285.92C133.452 286.535 133.224 287.428 133.22 288.6V289.413C133.22 290.53 133.475 291.418 133.985 292.079C134.496 292.735 135.186 293.063 136.057 293.063C136.549 293.063 136.979 293.009 137.349 292.899C137.718 292.79 138.023 292.605 138.265 292.346V290.11H135.961V289.044H139.57V292.694ZM146.133 294C146.06 293.854 146.001 293.594 145.955 293.221C145.367 293.831 144.665 294.137 143.85 294.137C143.12 294.137 142.521 293.932 142.052 293.521C141.587 293.107 141.354 292.583 141.354 291.949C141.354 291.179 141.646 290.582 142.229 290.158C142.817 289.73 143.642 289.516 144.704 289.516H145.935V288.935C145.935 288.493 145.802 288.142 145.538 287.882C145.274 287.618 144.884 287.485 144.369 287.485C143.918 287.485 143.54 287.599 143.234 287.827C142.929 288.055 142.776 288.331 142.776 288.654H141.505C141.505 288.285 141.635 287.93 141.895 287.588C142.159 287.242 142.514 286.968 142.961 286.768C143.412 286.567 143.907 286.467 144.444 286.467C145.297 286.467 145.964 286.681 146.447 287.109C146.93 287.533 147.181 288.119 147.199 288.866V292.271C147.199 292.95 147.286 293.49 147.459 293.891V294H146.133ZM144.034 293.036C144.431 293.036 144.807 292.934 145.162 292.729C145.518 292.523 145.775 292.257 145.935 291.929V290.411H144.943C143.394 290.411 142.619 290.865 142.619 291.771C142.619 292.168 142.751 292.478 143.016 292.701C143.28 292.924 143.619 293.036 144.034 293.036ZM150.556 294H149.291V283.5H150.556V294ZM157.152 294C157.079 293.854 157.02 293.594 156.975 293.221C156.387 293.831 155.685 294.137 154.869 294.137C154.14 294.137 153.541 293.932 153.071 293.521C152.606 293.107 152.374 292.583 152.374 291.949C152.374 291.179 152.666 290.582 153.249 290.158C153.837 289.73 154.662 289.516 155.724 289.516H156.954V288.935C156.954 288.493 156.822 288.142 156.558 287.882C156.293 287.618 155.904 287.485 155.389 287.485C154.938 287.485 154.559 287.599 154.254 287.827C153.949 288.055 153.796 288.331 153.796 288.654H152.524C152.524 288.285 152.654 287.93 152.914 287.588C153.178 287.242 153.534 286.968 153.98 286.768C154.432 286.567 154.926 286.467 155.464 286.467C156.316 286.467 156.984 286.681 157.467 287.109C157.95 287.533 158.201 288.119 158.219 288.866V292.271C158.219 292.95 158.305 293.49 158.479 293.891V294H157.152ZM155.054 293.036C155.45 293.036 155.826 292.934 156.182 292.729C156.537 292.523 156.795 292.257 156.954 291.929V290.411H155.963C154.413 290.411 153.639 290.865 153.639 291.771C153.639 292.168 153.771 292.478 154.035 292.701C154.299 292.924 154.639 293.036 155.054 293.036ZM156.223 283.5H157.754L155.922 285.51H154.903L156.223 283.5ZM161.397 286.604L161.438 287.533C162.004 286.822 162.742 286.467 163.653 286.467C165.216 286.467 166.005 287.349 166.019 289.112V294H164.754V289.105C164.749 288.572 164.626 288.178 164.385 287.923C164.148 287.668 163.776 287.54 163.271 287.54C162.86 287.54 162.5 287.649 162.19 287.868C161.881 288.087 161.639 288.374 161.466 288.729V294H160.201V286.604H161.397Z" fill="#7F8182"/>
<path d="M59 287C59 284.239 61.2386 282 64 282C66.7614 282 69 284.239 69 287C69 289.761 66.7614 292 64 292C61.2386 292 59 289.761 59 287ZM64 290C65.6569 290 67 288.657 67 287C67 285.343 65.6569 284 64 284C62.3431 284 61 285.343 61 287C61 288.657 62.3431 290 64 290Z" fill="#7F8182"/>
<path d="M58.3431 295.343C56.8429 296.843 56 298.878 56 301H58C58 299.409 58.6321 297.883 59.7574 296.757C60.8826 295.632 62.4087 295 64 295C65.5913 295 67.1174 295.632 68.2426 296.757C69.3679 297.883 70 299.409 70 301H72C72 298.878 71.1571 296.843 69.6569 295.343C68.1566 293.843 66.1217 293 64 293C61.8783 293 59.8434 293.843 58.3431 295.343Z" fill="#7F8182"/>
<rect x="42" y="357" width="291" height="52" rx="10" fill="#F5F5F5"/>
<path d="M77 380H76V378C76 375.24 73.76 373 71 373C68.24 373 66 375.24 66 378V380H65C63.9 380 63 380.9 63 382V392C63 393.1 63.9 394 65 394H77C78.1 394 79 393.1 79 392V382C79 380.9 78.1 380 77 380ZM68 378C68 376.34 69.34 375 71 375C72.66 375 74 376.34 74 378V380H68V378ZM77 392H65V382H77V392ZM71 389C72.1 389 73 388.1 73 387C73 385.9 72.1 385 71 385C69.9 385 69 385.9 69 387C69 388.1 69.9 389 71 389Z" fill="#7F8182"/>
<path d="M296 378C299.79 378 303.17 380.13 304.82 383.5C303.17 386.87 299.79 389 296 389C292.21 389 288.83 386.87 287.18 383.5C288.83 380.13 292.21 378 296 378ZM296 376C291 376 286.73 379.11 285 383.5C286.73 387.89 291 391 296 391C301 391 305.27 387.89 307 383.5C305.27 379.11 301 376 296 376ZM296 381C297.38 381 298.5 382.12 298.5 383.5C298.5 384.88 297.38 386 296 386C294.62 386 293.5 384.88 293.5 383.5C293.5 382.12 294.62 381 296 381ZM296 379C293.52 379 291.5 381.02 291.5 383.5C291.5 385.98 293.52 388 296 388C298.48 388 300.5 385.98 300.5 383.5C300.5 381.02 298.48 379 296 379Z" fill="#87D169"/>
<rect x="42" y="449" width="291" height="52" rx="10" fill="#66BB6A"/>
<path d="M142.562 481H140.219V469.625H142.562V481ZM146.672 472.547L146.742 473.523C147.346 472.768 148.156 472.391 149.172 472.391C150.068 472.391 150.734 472.654 151.172 473.18C151.609 473.706 151.833 474.492 151.844 475.539V481H149.586V475.594C149.586 475.115 149.482 474.768 149.273 474.555C149.065 474.336 148.719 474.227 148.234 474.227C147.599 474.227 147.122 474.497 146.805 475.039V481H144.547V472.547H146.672ZM155.945 481H153.68V472.547H155.945V481ZM153.547 470.359C153.547 470.021 153.659 469.742 153.883 469.523C154.112 469.305 154.422 469.195 154.812 469.195C155.198 469.195 155.505 469.305 155.734 469.523C155.964 469.742 156.078 470.021 156.078 470.359C156.078 470.703 155.961 470.984 155.727 471.203C155.497 471.422 155.193 471.531 154.812 471.531C154.432 471.531 154.125 471.422 153.891 471.203C153.661 470.984 153.547 470.703 153.547 470.359ZM161.328 479.336C161.745 479.336 162.083 479.221 162.344 478.992C162.604 478.763 162.74 478.458 162.75 478.078H164.867C164.862 478.651 164.706 479.177 164.398 479.656C164.091 480.13 163.669 480.5 163.133 480.766C162.602 481.026 162.013 481.156 161.367 481.156C160.159 481.156 159.206 480.773 158.508 480.008C157.81 479.237 157.461 478.174 157.461 476.82V476.672C157.461 475.37 157.807 474.331 158.5 473.555C159.193 472.779 160.143 472.391 161.352 472.391C162.409 472.391 163.255 472.693 163.891 473.297C164.531 473.896 164.857 474.695 164.867 475.695H162.75C162.74 475.258 162.604 474.904 162.344 474.633C162.083 474.357 161.74 474.219 161.312 474.219C160.786 474.219 160.388 474.411 160.117 474.797C159.852 475.177 159.719 475.797 159.719 476.656V476.891C159.719 477.76 159.852 478.385 160.117 478.766C160.383 479.146 160.786 479.336 161.328 479.336ZM168.539 481H166.273V472.547H168.539V481ZM166.141 470.359C166.141 470.021 166.253 469.742 166.477 469.523C166.706 469.305 167.016 469.195 167.406 469.195C167.792 469.195 168.099 469.305 168.328 469.523C168.557 469.742 168.672 470.021 168.672 470.359C168.672 470.703 168.555 470.984 168.32 471.203C168.091 471.422 167.786 471.531 167.406 471.531C167.026 471.531 166.719 471.422 166.484 471.203C166.255 470.984 166.141 470.703 166.141 470.359ZM175.305 481C175.201 480.797 175.125 480.544 175.078 480.242C174.531 480.852 173.82 481.156 172.945 481.156C172.117 481.156 171.43 480.917 170.883 480.438C170.341 479.958 170.07 479.354 170.07 478.625C170.07 477.729 170.401 477.042 171.062 476.562C171.729 476.083 172.69 475.841 173.945 475.836H174.984V475.352C174.984 474.961 174.883 474.648 174.68 474.414C174.482 474.18 174.167 474.062 173.734 474.062C173.354 474.062 173.055 474.154 172.836 474.336C172.622 474.518 172.516 474.768 172.516 475.086H170.258C170.258 474.596 170.409 474.143 170.711 473.727C171.013 473.31 171.44 472.984 171.992 472.75C172.544 472.51 173.164 472.391 173.852 472.391C174.893 472.391 175.719 472.654 176.328 473.18C176.943 473.701 177.25 474.435 177.25 475.383V479.047C177.255 479.849 177.367 480.456 177.586 480.867V481H175.305ZM173.438 479.43C173.771 479.43 174.078 479.357 174.359 479.211C174.641 479.06 174.849 478.859 174.984 478.609V477.156H174.141C173.01 477.156 172.409 477.547 172.336 478.328L172.328 478.461C172.328 478.742 172.427 478.974 172.625 479.156C172.823 479.339 173.094 479.43 173.438 479.43ZM183.734 474.664C183.427 474.622 183.156 474.602 182.922 474.602C182.068 474.602 181.508 474.891 181.242 475.469V481H178.984V472.547H181.117L181.18 473.555C181.633 472.779 182.26 472.391 183.062 472.391C183.312 472.391 183.547 472.424 183.766 472.492L183.734 474.664ZM194.859 478.016C194.859 477.573 194.703 477.234 194.391 477C194.078 476.76 193.516 476.51 192.703 476.25C191.891 475.984 191.247 475.724 190.773 475.469C189.482 474.771 188.836 473.831 188.836 472.648C188.836 472.034 189.008 471.487 189.352 471.008C189.701 470.523 190.198 470.146 190.844 469.875C191.495 469.604 192.224 469.469 193.031 469.469C193.844 469.469 194.568 469.617 195.203 469.914C195.839 470.206 196.331 470.62 196.68 471.156C197.034 471.693 197.211 472.302 197.211 472.984H194.867C194.867 472.464 194.703 472.06 194.375 471.773C194.047 471.482 193.586 471.336 192.992 471.336C192.419 471.336 191.974 471.458 191.656 471.703C191.339 471.943 191.18 472.26 191.18 472.656C191.18 473.026 191.365 473.336 191.734 473.586C192.109 473.836 192.659 474.07 193.383 474.289C194.716 474.69 195.688 475.188 196.297 475.781C196.906 476.375 197.211 477.115 197.211 478C197.211 478.984 196.839 479.758 196.094 480.32C195.349 480.878 194.346 481.156 193.086 481.156C192.211 481.156 191.414 480.997 190.695 480.68C189.977 480.357 189.427 479.917 189.047 479.359C188.672 478.802 188.484 478.156 188.484 477.422H190.836C190.836 478.677 191.586 479.305 193.086 479.305C193.643 479.305 194.078 479.193 194.391 478.969C194.703 478.74 194.859 478.422 194.859 478.016ZM202.547 481.156C201.307 481.156 200.297 480.776 199.516 480.016C198.74 479.255 198.352 478.242 198.352 476.977V476.758C198.352 475.909 198.516 475.151 198.844 474.484C199.172 473.812 199.635 473.297 200.234 472.938C200.839 472.573 201.526 472.391 202.297 472.391C203.453 472.391 204.362 472.755 205.023 473.484C205.69 474.214 206.023 475.247 206.023 476.586V477.508H200.641C200.714 478.06 200.932 478.503 201.297 478.836C201.667 479.169 202.133 479.336 202.695 479.336C203.565 479.336 204.245 479.021 204.734 478.391L205.844 479.633C205.505 480.112 205.047 480.487 204.469 480.758C203.891 481.023 203.25 481.156 202.547 481.156ZM202.289 474.219C201.841 474.219 201.477 474.37 201.195 474.672C200.919 474.974 200.742 475.406 200.664 475.969H203.805V475.789C203.794 475.289 203.659 474.904 203.398 474.633C203.138 474.357 202.768 474.219 202.289 474.219ZM211.891 478.664C211.891 478.388 211.753 478.172 211.477 478.016C211.206 477.854 210.768 477.711 210.164 477.586C208.154 477.164 207.148 476.31 207.148 475.023C207.148 474.273 207.458 473.648 208.078 473.148C208.703 472.643 209.518 472.391 210.523 472.391C211.596 472.391 212.453 472.643 213.094 473.148C213.74 473.654 214.062 474.31 214.062 475.117H211.805C211.805 474.794 211.701 474.529 211.492 474.32C211.284 474.107 210.958 474 210.516 474C210.135 474 209.841 474.086 209.633 474.258C209.424 474.43 209.32 474.648 209.32 474.914C209.32 475.164 209.438 475.367 209.672 475.523C209.911 475.674 210.312 475.807 210.875 475.922C211.438 476.031 211.911 476.156 212.297 476.297C213.49 476.734 214.086 477.492 214.086 478.57C214.086 479.341 213.755 479.966 213.094 480.445C212.432 480.919 211.578 481.156 210.531 481.156C209.823 481.156 209.193 481.031 208.641 480.781C208.094 480.526 207.664 480.18 207.352 479.742C207.039 479.299 206.883 478.823 206.883 478.312H209.023C209.044 478.714 209.193 479.021 209.469 479.234C209.745 479.448 210.115 479.555 210.578 479.555C211.01 479.555 211.336 479.474 211.555 479.312C211.779 479.146 211.891 478.93 211.891 478.664ZM217.93 481H215.664V472.547H217.93V481ZM215.531 470.359C215.531 470.021 215.643 469.742 215.867 469.523C216.096 469.305 216.406 469.195 216.797 469.195C217.182 469.195 217.49 469.305 217.719 469.523C217.948 469.742 218.062 470.021 218.062 470.359C218.062 470.703 217.945 470.984 217.711 471.203C217.482 471.422 217.177 471.531 216.797 471.531C216.417 471.531 216.109 471.422 215.875 471.203C215.646 470.984 215.531 470.703 215.531 470.359ZM219.445 476.695C219.445 475.857 219.607 475.109 219.93 474.453C220.253 473.797 220.716 473.289 221.32 472.93C221.93 472.57 222.635 472.391 223.438 472.391C224.578 472.391 225.508 472.74 226.227 473.438C226.951 474.135 227.354 475.083 227.438 476.281L227.453 476.859C227.453 478.156 227.091 479.198 226.367 479.984C225.643 480.766 224.672 481.156 223.453 481.156C222.234 481.156 221.26 480.766 220.531 479.984C219.807 479.203 219.445 478.141 219.445 476.797V476.695ZM221.703 476.859C221.703 477.661 221.854 478.276 222.156 478.703C222.458 479.125 222.891 479.336 223.453 479.336C224 479.336 224.427 479.128 224.734 478.711C225.042 478.289 225.195 477.617 225.195 476.695C225.195 475.909 225.042 475.299 224.734 474.867C224.427 474.435 223.995 474.219 223.438 474.219C222.885 474.219 222.458 474.435 222.156 474.867C221.854 475.294 221.703 475.958 221.703 476.859ZM223.883 469H226.344L224.18 471.422H222.344L223.883 469ZM230.922 472.547L230.992 473.523C231.596 472.768 232.406 472.391 233.422 472.391C234.318 472.391 234.984 472.654 235.422 473.18C235.859 473.706 236.083 474.492 236.094 475.539V481H233.836V475.594C233.836 475.115 233.732 474.768 233.523 474.555C233.315 474.336 232.969 474.227 232.484 474.227C231.849 474.227 231.372 474.497 231.055 475.039V481H228.797V472.547H230.922Z" fill="white"/>
<path d="M110.258 523.304C110.249 523.864 110.187 524.279 110.073 524.548C109.959 524.817 109.688 525.165 109.26 525.594C108.831 526.022 108.565 526.305 108.46 526.441C108.091 526.92 107.906 527.458 107.906 528.055C107.906 528.643 108.059 529.096 108.364 529.415C108.67 529.734 109.114 529.894 109.697 529.894C110.24 529.894 110.673 529.734 110.996 529.415C111.32 529.096 111.486 528.67 111.495 528.137H112.315C112.306 528.893 112.062 529.495 111.584 529.941C111.105 530.393 110.477 530.618 109.697 530.618C108.886 530.618 108.248 530.39 107.783 529.935C107.323 529.479 107.093 528.857 107.093 528.068C107.093 527.562 107.214 527.079 107.455 526.619C107.697 526.159 108.143 525.621 108.795 525.006C109.182 524.682 109.392 524.272 109.424 523.775L109.438 523.304H110.258ZM110.367 521.014C110.367 521.169 110.317 521.301 110.217 521.41C110.117 521.515 109.98 521.567 109.807 521.567C109.633 521.567 109.494 521.515 109.39 521.41C109.289 521.301 109.239 521.169 109.239 521.014C109.239 520.863 109.289 520.736 109.39 520.631C109.494 520.526 109.633 520.474 109.807 520.474C109.98 520.474 110.117 520.526 110.217 520.631C110.317 520.736 110.367 520.863 110.367 521.014ZM121.53 523.563C121.53 524.479 121.371 525.284 121.052 525.977C120.737 526.669 120.286 527.202 119.698 527.576C119.11 527.95 118.431 528.137 117.661 528.137C116.499 528.137 115.56 527.722 114.845 526.893C114.129 526.059 113.771 524.935 113.771 523.522V522.497C113.771 521.59 113.931 520.788 114.25 520.091C114.574 519.389 115.029 518.851 115.617 518.478C116.205 518.099 116.882 517.91 117.647 517.91C118.413 517.91 119.088 518.095 119.671 518.464C120.259 518.833 120.712 519.355 121.031 520.029C121.35 520.704 121.517 521.485 121.53 522.374V523.563ZM120.689 522.483C120.689 521.285 120.418 520.346 119.876 519.667C119.334 518.988 118.591 518.648 117.647 518.648C116.722 518.648 115.984 518.99 115.433 519.674C114.886 520.353 114.612 521.303 114.612 522.524V523.563C114.612 524.744 114.886 525.68 115.433 526.373C115.979 527.061 116.722 527.405 117.661 527.405C118.614 527.405 119.356 527.066 119.89 526.387C120.423 525.703 120.689 524.753 120.689 523.536V522.483ZM124.374 528H123.554V517.5H124.374V528ZM128.906 526.872L131.155 520.604H131.996L129.234 528H128.571L125.796 520.604H126.637L128.906 526.872ZM134.259 528H133.438V520.604H134.259V528ZM133.295 518.464C133.295 518.309 133.345 518.179 133.445 518.074C133.546 517.965 133.682 517.91 133.855 517.91C134.029 517.91 134.165 517.965 134.266 518.074C134.37 518.179 134.423 518.309 134.423 518.464C134.423 518.619 134.37 518.749 134.266 518.854C134.165 518.958 134.029 519.011 133.855 519.011C133.682 519.011 133.546 518.958 133.445 518.854C133.345 518.749 133.295 518.619 133.295 518.464ZM136.159 524.233C136.159 523.085 136.414 522.171 136.925 521.492C137.44 520.809 138.137 520.467 139.017 520.467C140.015 520.467 140.776 520.861 141.3 521.649V517.5H142.113V528H141.348L141.313 527.016C140.789 527.763 140.019 528.137 139.003 528.137C138.151 528.137 137.463 527.795 136.938 527.111C136.419 526.423 136.159 525.496 136.159 524.329V524.233ZM136.986 524.377C136.986 525.32 137.175 526.065 137.554 526.612C137.932 527.155 138.465 527.426 139.153 527.426C140.16 527.426 140.876 526.981 141.3 526.093V522.62C140.876 521.659 140.165 521.178 139.167 521.178C138.479 521.178 137.943 521.449 137.561 521.991C137.178 522.529 136.986 523.324 136.986 524.377ZM148.936 528C148.854 527.768 148.801 527.424 148.778 526.968C148.491 527.341 148.124 527.631 147.678 527.836C147.236 528.036 146.766 528.137 146.27 528.137C145.559 528.137 144.982 527.938 144.54 527.542C144.103 527.146 143.884 526.644 143.884 526.038C143.884 525.318 144.182 524.748 144.779 524.329C145.381 523.91 146.217 523.7 147.288 523.7H148.771V522.859C148.771 522.331 148.607 521.916 148.279 521.615C147.956 521.31 147.482 521.157 146.857 521.157C146.288 521.157 145.816 521.303 145.442 521.595C145.069 521.886 144.882 522.237 144.882 522.647L144.062 522.641C144.062 522.053 144.335 521.545 144.882 521.116C145.429 520.683 146.101 520.467 146.898 520.467C147.723 520.467 148.373 520.674 148.847 521.089C149.325 521.499 149.571 522.073 149.585 522.812V526.312C149.585 527.027 149.66 527.562 149.811 527.918V528H148.936ZM146.365 527.412C146.912 527.412 147.4 527.28 147.828 527.016C148.261 526.751 148.576 526.398 148.771 525.956V524.329H147.309C146.493 524.338 145.855 524.489 145.395 524.78C144.934 525.067 144.704 525.464 144.704 525.97C144.704 526.384 144.857 526.729 145.162 527.002C145.472 527.275 145.873 527.412 146.365 527.412ZM156.202 526.12C156.202 525.715 156.038 525.389 155.71 525.143C155.386 524.896 154.896 524.705 154.24 524.568C153.584 524.427 153.074 524.268 152.709 524.09C152.349 523.908 152.08 523.687 151.902 523.427C151.729 523.167 151.643 522.853 151.643 522.483C151.643 521.9 151.886 521.419 152.374 521.041C152.862 520.658 153.486 520.467 154.247 520.467C155.072 520.467 155.733 520.672 156.229 521.082C156.731 521.488 156.981 522.019 156.981 522.675H156.161C156.161 522.242 155.979 521.882 155.614 521.595C155.254 521.308 154.799 521.164 154.247 521.164C153.709 521.164 153.276 521.285 152.948 521.526C152.625 521.763 152.463 522.073 152.463 522.456C152.463 522.825 152.597 523.112 152.866 523.317C153.14 523.518 153.634 523.702 154.35 523.871C155.07 524.04 155.607 524.22 155.963 524.411C156.323 524.603 156.59 524.833 156.763 525.102C156.936 525.37 157.022 525.696 157.022 526.079C157.022 526.703 156.77 527.202 156.264 527.576C155.762 527.95 155.106 528.137 154.295 528.137C153.434 528.137 152.734 527.929 152.196 527.515C151.663 527.095 151.396 526.567 151.396 525.929H152.217C152.249 526.407 152.449 526.781 152.818 527.05C153.192 527.314 153.684 527.446 154.295 527.446C154.865 527.446 155.325 527.321 155.676 527.07C156.027 526.82 156.202 526.503 156.202 526.12ZM160.14 518.71V520.604H161.671V521.273H160.14V526.202C160.14 526.612 160.213 526.918 160.358 527.118C160.509 527.319 160.757 527.419 161.104 527.419C161.24 527.419 161.461 527.396 161.767 527.351L161.801 528.021C161.587 528.098 161.295 528.137 160.926 528.137C160.365 528.137 159.957 527.975 159.702 527.651C159.447 527.323 159.319 526.842 159.319 526.209V521.273H157.959V520.604H159.319V518.71H160.14ZM166.23 528.137C165.602 528.137 165.032 527.982 164.521 527.672C164.016 527.362 163.621 526.931 163.339 526.38C163.056 525.824 162.915 525.202 162.915 524.514V524.22C162.915 523.509 163.052 522.868 163.325 522.299C163.603 521.729 163.988 521.283 164.48 520.959C164.973 520.631 165.506 520.467 166.08 520.467C166.978 520.467 167.689 520.774 168.213 521.39C168.742 522 169.006 522.837 169.006 523.898V524.356H163.729V524.514C163.729 525.352 163.968 526.052 164.446 526.612C164.929 527.168 165.535 527.446 166.265 527.446C166.702 527.446 167.087 527.367 167.42 527.207C167.757 527.048 168.062 526.792 168.336 526.441L168.849 526.831C168.247 527.701 167.374 528.137 166.23 528.137ZM166.08 521.164C165.465 521.164 164.945 521.39 164.521 521.841C164.102 522.292 163.847 522.898 163.756 523.659H168.192V523.57C168.17 522.859 167.967 522.281 167.584 521.834C167.201 521.387 166.7 521.164 166.08 521.164ZM175.274 518.71V520.604H176.806V521.273H175.274V526.202C175.274 526.612 175.347 526.918 175.493 527.118C175.644 527.319 175.892 527.419 176.238 527.419C176.375 527.419 176.596 527.396 176.901 527.351L176.936 528.021C176.721 528.098 176.43 528.137 176.061 528.137C175.5 528.137 175.092 527.975 174.837 527.651C174.582 527.323 174.454 526.842 174.454 526.209V521.273H173.094V520.604H174.454V518.71H175.274ZM183.259 527.063C182.767 527.779 181.98 528.137 180.9 528.137C180.112 528.137 179.513 527.909 179.103 527.453C178.692 526.993 178.483 526.314 178.474 525.416V520.604H179.287V525.313C179.287 526.722 179.857 527.426 180.996 527.426C182.181 527.426 182.931 526.936 183.245 525.956V520.604H184.065V528H183.272L183.259 527.063ZM196.842 524.896C196.728 525.945 196.352 526.747 195.714 527.303C195.08 527.859 194.235 528.137 193.178 528.137C192.439 528.137 191.785 527.952 191.216 527.583C190.651 527.214 190.213 526.692 189.903 526.018C189.593 525.339 189.436 524.564 189.432 523.693V522.401C189.432 521.517 189.587 520.733 189.896 520.05C190.206 519.366 190.651 518.84 191.229 518.471C191.813 518.097 192.483 517.91 193.239 517.91C194.306 517.91 195.146 518.2 195.762 518.778C196.382 519.353 196.742 520.148 196.842 521.164H195.994C195.785 519.473 194.866 518.628 193.239 518.628C192.337 518.628 191.617 518.965 191.079 519.64C190.546 520.314 190.279 521.246 190.279 522.436V523.652C190.279 524.801 190.539 525.717 191.059 526.4C191.583 527.084 192.289 527.426 193.178 527.426C194.057 527.426 194.72 527.216 195.167 526.797C195.614 526.373 195.889 525.74 195.994 524.896H196.842ZM198.243 524.192C198.243 523.481 198.38 522.841 198.653 522.271C198.931 521.702 199.321 521.26 199.822 520.945C200.328 520.626 200.9 520.467 201.538 520.467C202.522 520.467 203.32 520.813 203.931 521.506C204.541 522.194 204.847 523.108 204.847 524.247V524.418C204.847 525.133 204.708 525.778 204.43 526.353C204.156 526.922 203.769 527.362 203.268 527.672C202.766 527.982 202.194 528.137 201.552 528.137C200.572 528.137 199.774 527.793 199.159 527.104C198.549 526.412 198.243 525.496 198.243 524.356V524.192ZM199.063 524.418C199.063 525.302 199.291 526.029 199.747 526.599C200.207 527.164 200.809 527.446 201.552 527.446C202.29 527.446 202.887 527.164 203.343 526.599C203.803 526.029 204.033 525.279 204.033 524.35V524.192C204.033 523.627 203.928 523.11 203.719 522.641C203.509 522.171 203.215 521.809 202.837 521.554C202.459 521.294 202.026 521.164 201.538 521.164C200.809 521.164 200.214 521.451 199.754 522.025C199.294 522.595 199.063 523.342 199.063 524.268V524.418ZM207.321 520.604L207.349 521.868C207.627 521.412 207.973 521.066 208.388 520.829C208.802 520.588 209.26 520.467 209.762 520.467C210.555 520.467 211.145 520.69 211.532 521.137C211.92 521.583 212.116 522.253 212.12 523.146V528H211.307V523.14C211.302 522.479 211.161 521.987 210.883 521.663C210.609 521.34 210.17 521.178 209.563 521.178C209.058 521.178 208.609 521.337 208.217 521.656C207.829 521.971 207.542 522.397 207.355 522.935V528H206.542V520.604H207.321ZM215.511 518.71V520.604H217.042V521.273H215.511V526.202C215.511 526.612 215.584 526.918 215.729 527.118C215.88 527.319 216.128 527.419 216.475 527.419C216.611 527.419 216.832 527.396 217.138 527.351L217.172 528.021C216.958 528.098 216.666 528.137 216.297 528.137C215.736 528.137 215.328 527.975 215.073 527.651C214.818 527.323 214.69 526.842 214.69 526.209V521.273H213.33V520.604H214.69V518.71H215.511ZM222.155 521.301C221.982 521.269 221.798 521.253 221.602 521.253C221.091 521.253 220.658 521.396 220.303 521.684C219.952 521.966 219.701 522.379 219.551 522.921V528H218.737V520.604H219.537L219.551 521.779C219.984 520.904 220.679 520.467 221.636 520.467C221.864 520.467 222.044 520.496 222.176 520.556L222.155 521.301ZM227.85 528C227.768 527.768 227.715 527.424 227.692 526.968C227.405 527.341 227.038 527.631 226.592 527.836C226.15 528.036 225.68 528.137 225.184 528.137C224.473 528.137 223.896 527.938 223.454 527.542C223.017 527.146 222.798 526.644 222.798 526.038C222.798 525.318 223.096 524.748 223.693 524.329C224.295 523.91 225.131 523.7 226.202 523.7H227.686V522.859C227.686 522.331 227.521 521.916 227.193 521.615C226.87 521.31 226.396 521.157 225.771 521.157C225.202 521.157 224.73 521.303 224.356 521.595C223.983 521.886 223.796 522.237 223.796 522.647L222.976 522.641C222.976 522.053 223.249 521.545 223.796 521.116C224.343 520.683 225.015 520.467 225.812 520.467C226.637 520.467 227.287 520.674 227.761 521.089C228.239 521.499 228.485 522.073 228.499 522.812V526.312C228.499 527.027 228.574 527.562 228.725 527.918V528H227.85ZM225.279 527.412C225.826 527.412 226.314 527.28 226.742 527.016C227.175 526.751 227.49 526.398 227.686 525.956V524.329H226.223C225.407 524.338 224.769 524.489 224.309 524.78C223.848 525.067 223.618 525.464 223.618 525.97C223.618 526.384 223.771 526.729 224.076 527.002C224.386 527.275 224.787 527.412 225.279 527.412ZM235.116 526.12C235.116 525.715 234.952 525.389 234.624 525.143C234.3 524.896 233.811 524.705 233.154 524.568C232.498 524.427 231.988 524.268 231.623 524.09C231.263 523.908 230.994 523.687 230.816 523.427C230.643 523.167 230.557 522.853 230.557 522.483C230.557 521.9 230.8 521.419 231.288 521.041C231.776 520.658 232.4 520.467 233.161 520.467C233.986 520.467 234.647 520.672 235.144 521.082C235.645 521.488 235.896 522.019 235.896 522.675H235.075C235.075 522.242 234.893 521.882 234.528 521.595C234.168 521.308 233.713 521.164 233.161 521.164C232.623 521.164 232.19 521.285 231.862 521.526C231.539 521.763 231.377 522.073 231.377 522.456C231.377 522.825 231.511 523.112 231.78 523.317C232.054 523.518 232.548 523.702 233.264 523.871C233.984 524.04 234.521 524.22 234.877 524.411C235.237 524.603 235.504 524.833 235.677 525.102C235.85 525.37 235.937 525.696 235.937 526.079C235.937 526.703 235.684 527.202 235.178 527.576C234.676 527.95 234.02 528.137 233.209 528.137C232.348 528.137 231.648 527.929 231.11 527.515C230.577 527.095 230.311 526.567 230.311 525.929H231.131C231.163 526.407 231.363 526.781 231.732 527.05C232.106 527.314 232.598 527.446 233.209 527.446C233.779 527.446 234.239 527.321 234.59 527.07C234.941 526.82 235.116 526.503 235.116 526.12ZM240.646 528.137C240.018 528.137 239.448 527.982 238.938 527.672C238.432 527.362 238.037 526.931 237.755 526.38C237.472 525.824 237.331 525.202 237.331 524.514V524.22C237.331 523.509 237.468 522.868 237.741 522.299C238.019 521.729 238.404 521.283 238.896 520.959C239.389 520.631 239.922 520.467 240.496 520.467C241.394 520.467 242.105 520.774 242.629 521.39C243.158 522 243.422 522.837 243.422 523.898V524.356H238.145V524.514C238.145 525.352 238.384 526.052 238.862 526.612C239.345 527.168 239.951 527.446 240.681 527.446C241.118 527.446 241.503 527.367 241.836 527.207C242.173 527.048 242.479 526.792 242.752 526.441L243.265 526.831C242.663 527.701 241.79 528.137 240.646 528.137ZM240.496 521.164C239.881 521.164 239.361 521.39 238.938 521.841C238.518 522.292 238.263 522.898 238.172 523.659H242.608V523.57C242.586 522.859 242.383 522.281 242 521.834C241.617 521.387 241.116 521.164 240.496 521.164ZM245.794 520.604L245.821 521.868C246.099 521.412 246.446 521.066 246.86 520.829C247.275 520.588 247.733 520.467 248.234 520.467C249.027 520.467 249.618 520.69 250.005 521.137C250.392 521.583 250.588 522.253 250.593 523.146V528H249.779V523.14C249.775 522.479 249.633 521.987 249.355 521.663C249.082 521.34 248.642 521.178 248.036 521.178C247.53 521.178 247.081 521.337 246.689 521.656C246.302 521.971 246.015 522.397 245.828 522.935V528H245.015V520.604H245.794ZM250.21 517.794C250.21 518.231 250.08 518.585 249.82 518.854C249.565 519.118 249.251 519.25 248.877 519.25C248.531 519.25 248.191 519.125 247.858 518.874C247.53 518.623 247.236 518.498 246.977 518.498C246.762 518.498 246.582 518.569 246.437 518.71C246.295 518.851 246.225 519.049 246.225 519.305L245.609 519.284C245.609 518.865 245.732 518.519 245.979 518.245C246.229 517.972 246.55 517.835 246.942 517.835C247.161 517.835 247.348 517.874 247.503 517.951C247.658 518.029 247.804 518.115 247.94 518.211C248.077 518.307 248.214 518.393 248.351 518.471C248.492 518.548 248.656 518.587 248.843 518.587C249.052 518.587 249.23 518.512 249.376 518.361C249.526 518.211 249.602 518.008 249.602 517.753L250.21 517.794ZM257.381 528C257.299 527.768 257.246 527.424 257.224 526.968C256.937 527.341 256.57 527.631 256.123 527.836C255.681 528.036 255.212 528.137 254.715 528.137C254.004 528.137 253.427 527.938 252.985 527.542C252.548 527.146 252.329 526.644 252.329 526.038C252.329 525.318 252.628 524.748 253.225 524.329C253.826 523.91 254.662 523.7 255.733 523.7H257.217V522.859C257.217 522.331 257.053 521.916 256.725 521.615C256.401 521.31 255.927 521.157 255.303 521.157C254.733 521.157 254.261 521.303 253.888 521.595C253.514 521.886 253.327 522.237 253.327 522.647L252.507 522.641C252.507 522.053 252.78 521.545 253.327 521.116C253.874 520.683 254.546 520.467 255.344 520.467C256.169 520.467 256.818 520.674 257.292 521.089C257.771 521.499 258.017 522.073 258.03 522.812V526.312C258.03 527.027 258.105 527.562 258.256 527.918V528H257.381ZM254.811 527.412C255.357 527.412 255.845 527.28 256.273 527.016C256.706 526.751 257.021 526.398 257.217 525.956V524.329H255.754C254.938 524.338 254.3 524.489 253.84 524.78C253.38 525.067 253.149 525.464 253.149 525.97C253.149 526.384 253.302 526.729 253.607 527.002C253.917 527.275 254.318 527.412 254.811 527.412ZM261.722 525.238C261.731 524.701 261.804 524.268 261.94 523.939C262.077 523.611 262.371 523.226 262.822 522.784C263.273 522.338 263.563 522.023 263.69 521.841C263.823 521.654 263.923 521.451 263.991 521.232C264.064 521.009 264.101 520.756 264.101 520.474C264.101 519.904 263.948 519.457 263.643 519.134C263.342 518.806 262.92 518.642 262.378 518.642C261.831 518.642 261.389 518.799 261.052 519.113C260.719 519.423 260.548 519.845 260.539 520.378H259.726C259.735 519.631 259.988 519.034 260.484 518.587C260.981 518.136 261.612 517.91 262.378 517.91C263.162 517.91 263.779 518.14 264.23 518.601C264.686 519.056 264.914 519.676 264.914 520.46C264.914 520.952 264.802 521.415 264.579 521.848C264.356 522.276 263.932 522.777 263.308 523.352C262.793 523.785 262.535 524.413 262.535 525.238H261.722ZM261.612 527.521C261.612 527.367 261.66 527.237 261.756 527.132C261.856 527.022 261.995 526.968 262.173 526.968C262.346 526.968 262.483 527.022 262.583 527.132C262.688 527.237 262.74 527.367 262.74 527.521C262.74 527.672 262.688 527.799 262.583 527.904C262.483 528.005 262.346 528.055 262.173 528.055C261.995 528.055 261.856 528.005 261.756 527.904C261.66 527.799 261.612 527.672 261.612 527.521Z" fill="#7F8182"/>
<circle cx="104" cy="385" r="6" fill="#515151"/>
<circle cx="170" cy="385" r="6" fill="#515151"/>
<circle cx="192" cy="385" r="6" fill="#515151"/>
<circle cx="214" cy="385" r="6" fill="#515151"/>
<circle cx="148" cy="385" r="6" fill="#515151"/>
<circle cx="126" cy="385" r="6" fill="#515151"/>
</g>
<defs>
<clipPath id="clip0_68_982">
<rect width="375" height="812" fill="white"/>
</clipPath>
</defs>
</svg>
